<svg width="800" height="600" xmlns="http://www.w3.org/2000/svg">

 <g>
  <title>Layer 1</title>
  <path id="svg_10" d="m288.74997,376.5625l87.5,-153.125l87.5,153.125l-174.99999,0z" fill="#016f01"/>
  <path id="svg_12" d="m307.49997,269.7606l68.74999,-120.31249l68.74999,120.31249l-137.49999,0z" fill="#016f01"/>
  <path id="svg_13" d="m326.24998,194.07796l49.99999,-87.49999l49.99999,87.49999l-99.99999,0z" fill="#016f01"/>
  <path id="svg_15" d="m353.44297,95.99649l17.42312,0l5.38388,-16.5519l5.38388,16.5519l17.42312,0l-14.09558,10.22952l5.38416,16.5519l-14.09558,-10.2298l-14.09558,10.2298l5.38416,-16.5519l-14.09558,-10.22952z" stroke="#000" fill="#ffff56"/>
  <ellipse ry="14.99998" rx="14.99998" id="svg_16" cy="191.45387" cx="428.18108" fill="#ff0000"/>
  <ellipse ry="14.99998" rx="14.99998" id="svg_17" cy="269.63569" cx="309.09017" fill="#ff0000"/>
  <ellipse ry="14.99998" rx="14.99998" id="svg_18" cy="191.45387" cx="328.18108" fill="#ff0000"/>
  <ellipse ry="14.99998" rx="14.99998" id="svg_19" cy="269.63569" cx="439.99926" fill="#ff0000"/>
  <ellipse ry="14.99998" rx="14.99998" id="svg_20" cy="198.7266" cx="379.09016" fill="#ff0000"/>
  <ellipse ry="14.99998" rx="14.99998" id="svg_21" cy="276.90842" cx="376.3629" fill="#ff0000"/>
 </g>
</svg>